<?xml version="1.0" encoding="UTF-8"?> <!-- Generator: Adobe Illustrator 23.1.0, SVG Export Plug-In . SVG Version: 6.00 Build 0) --> <svg xmlns="http://www.w3.org/2000/svg" xmlns:xlink="http://www.w3.org/1999/xlink" version="1.1" id="Layer_1" x="0px" y="0px" viewBox="0 0 680 66" style="enable-background:new 0 0 680 66;" xml:space="preserve"> <style type="text/css"> .st0{fill:#0F4595;} .st1{fill:#F1AC13;} .st2{fill:#231F20;} .st3{fill:#FF5F00;} .st4{fill:#EB001B;} .st5{fill:#F79E1B;} .st6{fill:#253B80;} .st7{fill:#179BD7;} .st8{clip-path:url(#SVGID_2_);fill:#F79C34;} .st9{clip-path:url(#SVGID_4_);fill:#F79C34;} .st10{clip-path:url(#SVGID_6_);fill:#333E47;} .st11{clip-path:url(#SVGID_8_);fill:#333E47;} .st12{clip-path:url(#SVGID_10_);fill:#333E47;} .st13{clip-path:url(#SVGID_12_);fill:#333E47;} .st14{clip-path:url(#SVGID_14_);fill:#333E47;} .st15{clip-path:url(#SVGID_16_);fill:#333E47;} .st16{clip-path:url(#SVGID_18_);fill:#333E47;} .st17{clip-path:url(#SVGID_20_);fill:#333E47;} .st18{clip-path:url(#SVGID_22_);fill:#333E47;} .st19{fill:#FFB3C7;} .st20{fill:#0A0B09;} .st21{fill:#B2FCE4;} </style> <title>payment-methods-us</title> <g> <path class="st0" d="M83.8,45.8V46H78c-0.2,0-0.4,0-0.4-0.3c-0.2-1.1-0.4-2.1-0.6-3.3c0-0.2-0.1-0.3-0.4-0.3h-7.7 c-0.2,0-0.4,0.1-0.4,0.3c-0.4,1.1-0.8,2.1-1.1,3.3c0,0.2-0.2,0.3-0.4,0.3h-6.2c-0.3,0-0.3,0-0.2-0.3c3.1-7.6,6.4-15.2,9.5-22.8 c0.5-1.3,1.7-2.2,3.1-2.1h5c0.2,0,0.3,0.1,0.4,0.3c0.7,3.6,1.5,7.1,2.2,10.8c0.8,3.7,1.5,7.5,2.4,11.4C83.4,44,83.5,44.9,83.8,45.8 z M73.9,27.5c-0.3,0.9-0.6,1.8-0.9,2.7c-0.8,2.1-1.6,4.4-2.4,6.5c-0.1,0.2-0.1,0.3,0.2,0.3h4.7c0.3,0,0.3-0.1,0.2-0.3 C75.1,33.6,74.5,30.6,73.9,27.5L73.9,27.5z"></path> <path class="st0" d="M57,20.1c0.4,0.1,0.9,0.2,1.3,0.2c1,0.2,2,0.4,3,0.8c0.2,0,0.3,0.2,0.2,0.3l0,0c-0.3,1.6-0.5,3.4-0.8,5 c0,0.2-0.1,0.2-0.3,0.1c-1.7-0.8-3.5-1.2-5.3-1.1c-0.8,0-1.7,0.2-2.4,0.5s-1.2,1-1.1,1.8c0,0.4,0.2,0.8,0.5,1 c0.4,0.4,0.9,0.8,1.5,1.1c1.2,0.5,2.3,1.2,3.4,1.8c1.1,0.6,2,1.5,2.7,2.4c1.1,1.5,1.4,3.5,0.8,5.3c-0.6,2.5-2.4,4.5-4.7,5.6 c-1.5,0.6-3,1-4.6,1.2c-0.1,0-0.2,0-0.2,0.1h-3.1C47.5,46.1,47,46,46.6,46c-1.4-0.2-2.7-0.5-4-1c-0.3-0.1-0.5-0.2-0.5-0.5 c0.3-1.8,0.6-3.4,0.8-5c0-0.3,0.1-0.2,0.3-0.1c0.9,0.5,1.9,0.9,3,1.1c1.7,0.5,3.5,0.6,5.2,0.3c0.6-0.1,1.2-0.3,1.8-0.7 c0.9-0.6,1.1-1.7,0.6-2.6c0,0,0,0,0-0.1l-0.3-0.3c-0.6-0.6-1.3-1.1-2.1-1.5c-1.2-0.5-2.2-1.2-3.3-1.9c-1.3-0.9-2.3-2.1-2.8-3.7 c-0.6-2.1-0.1-4.4,1.3-6.2c1.4-1.8,3.4-3,5.6-3.4c0.8-0.2,1.7-0.3,2.5-0.4c0.1,0,0.1,0,0.1-0.1L57,20.1z"></path> <path class="st0" d="M34.8,45.9h-3.1c-0.2,0-0.3-0.1-0.3-0.3c0.6-3.9,1.2-7.7,1.9-11.7c0.6-3.7,1.1-7.2,1.8-10.8 c0.1-0.8,0.3-1.5,0.4-2.4c0-0.2,0.1-0.3,0.3-0.3h6c0.2,0,0.3,0.1,0.3,0.3c-0.4,2.7-0.9,5.5-1.3,8.2c-0.5,3-0.9,5.9-1.5,8.7 c-0.4,2.7-0.8,5.3-1.2,7.8c0,0.2-0.1,0.3-0.3,0.3C36.7,45.9,35.7,45.9,34.8,45.9z"></path> <path class="st0" d="M18.8,34.2l0.7,3.6c0.3-0.8,0.6-1.5,0.8-2.4c1.8-4.9,3.7-9.8,5.3-14.6c0-0.2,0.2-0.3,0.4-0.3h6.2 c0.4,0,0.4,0,0.2,0.4C30.2,26.4,28,32,25.7,37.5c-1.1,2.7-2.2,5.3-3.3,8c-0.1,0.2-0.3,0.3-0.5,0.3h-6.3c-0.3,0-0.4-0.1-0.4-0.3 c-1.8-7.1-3.7-14.2-5.6-21.3c0-0.1-0.1-0.2,0-0.3c0.1,0,0.1,0,0.2,0.1c2.7,1.6,5,3.8,6.8,6.5c0.7,1.2,1.3,2.4,1.9,3.7l0,0 C18.7,34.2,18.7,34.2,18.8,34.2z"></path> <path class="st1" d="M18.7,34.2c-0.5-1.3-1.2-2.5-1.9-3.7c-1.7-2.7-4.1-4.9-6.8-6.5c-0.2,0-0.2-0.2-0.2-0.2l0,0 c0-0.1,0-0.1-0.1-0.1c-1.2-0.8-2.5-1.4-3.9-1.8L3.1,21c0,0-0.1,0-0.1-0.2s0.2-0.2,0.3-0.2h10.4c1.5-0.1,2.8,1,3,2.4l0,0 c0.7,3.6,1.5,7.1,2.1,10.7C18.8,33.9,18.8,34,18.7,34.2z"></path> <path class="st1" d="M18.8,34.2c-0.1-0.1-0.1-0.1-0.1-0.2C18.8,34.1,18.8,34.1,18.8,34.2z"></path> <path class="st0" d="M9.8,23.9"></path> </g> <g> <path class="st2" d="M118.6,52.2c0-0.8,0.7-1.3,1.4-1.3c0.8,0,1.3,0.7,1.3,1.4l0,0c-0.1,0.8-0.8,1.4-1.6,1.3 c-0.7-0.1-1.2-0.6-1.3-1.3C118.6,52.3,118.6,52.3,118.6,52.2 M122.4,52.2v-2.4h-1v0.6c-0.4-0.4-0.9-0.7-1.5-0.7 c-1.3,0.1-2.3,1.2-2.4,2.5c0.1,1.3,1.1,2.3,2.4,2.4c0.6,0,1.1-0.2,1.5-0.7v0.6h1V52.2z M156.1,52.2c0-0.7,0.6-1.3,1.3-1.3h0.1 c0.7,0.1,1.3,0.7,1.3,1.5c-0.1,0.8-0.8,1.4-1.6,1.3c-0.7-0.1-1.2-0.6-1.3-1.3C156.1,52.3,156.1,52.3,156.1,52.2 M159.9,52.2v-4h-1 v2.4c-0.4-0.4-0.9-0.7-1.5-0.7c-1.3,0.1-2.3,1.2-2.4,2.5c0.1,1.3,1.1,2.3,2.4,2.4c0.6,0,1.1-0.2,1.5-0.7v0.6h1V52.2z M134.8,50.7 c0.6,0,1.1,0.5,1.1,1.1h-2.4C133.6,51.2,134.1,50.7,134.8,50.7 M134.8,49.9c-1.3,0.1-2.3,1.2-2.4,2.5c0.1,1.2,1.1,2.2,2.4,2.4 c0.7,0,1.3-0.2,1.9-0.6l-0.5-0.7c-0.4,0.3-0.8,0.5-1.3,0.5c-0.7,0.1-1.4-0.4-1.5-1.1h3.4v-0.4c0.1-1.2-0.8-2.3-2.1-2.4 C134.8,49.9,134.8,49.9,134.8,49.9 M146.8,52.2c0-0.7,0.6-1.3,1.3-1.3h0.1c0.7,0.1,1.3,0.7,1.3,1.5c-0.1,0.8-0.8,1.4-1.6,1.3 c-0.7-0.1-1.2-0.6-1.3-1.3C146.8,52.3,146.8,52.3,146.8,52.2 M150.6,52.2v-2.4h-1v0.6c-0.4-0.4-0.9-0.7-1.5-0.7 c-1.3,0.1-2.3,1.2-2.4,2.5c0.1,1.3,1.1,2.3,2.4,2.4c0.6,0,1.1-0.2,1.5-0.7v0.6h1V52.2z M141.2,52.2c-0.1,1.3,0.9,2.4,2.2,2.4l0,0 h0.2c0.6,0,1.1-0.2,1.6-0.5l-0.5-0.8c-0.3,0.3-0.8,0.4-1.2,0.4c-0.8,0-1.5-0.7-1.5-1.5l0,0c0.1-0.8,0.7-1.4,1.5-1.5 c0.4,0,0.9,0.1,1.2,0.4l0.5-0.8c-0.4-0.4-1-0.6-1.6-0.5c-1.3-0.1-2.4,0.9-2.4,2.2l0,0V52.2 M154.1,49.9c-0.5,0-1,0.3-1.2,0.7V50h-1 v4.6h1V52c0-0.8,0.3-1.2,1-1.2c0.2,0,0.4,0,0.6,0.1l0.3-0.9C154.6,49.9,154.4,49.9,154.1,49.9 M127.2,50.3 c-0.6-0.3-1.2-0.5-1.8-0.5c-1.1,0-1.9,0.6-1.9,1.5c0,0.7,0.6,1.2,1.6,1.3l0.5,0.1c0.5,0.1,0.8,0.2,0.8,0.5c0,0.4-0.4,0.6-1,0.6 s-1.1-0.2-1.5-0.5l-0.5,0.8c0.6,0.4,1.3,0.6,2.1,0.6c1.3,0,2.1-0.6,2.1-1.5c0-0.8-0.6-1.2-1.6-1.5l-0.5-0.1 c-0.4-0.1-0.8-0.1-0.8-0.4s0.3-0.5,0.9-0.5c0.5,0,1,0.1,1.5,0.4L127.2,50.3z M140.2,49.9c-0.5,0-1,0.3-1.2,0.7V50h-1v4.6h1V52 c0-0.8,0.3-1.2,1-1.2c0.2,0,0.4,0,0.6,0.1l0.3-0.9C140.6,49.9,140.4,49.8,140.2,49.9 M131.6,50H130v-1.5h-1V50h-0.9v0.9h0.9V53 c0,1.1,0.4,1.8,1.6,1.8c0.4,0,0.9-0.1,1.2-0.4l-0.3-0.8c-0.3,0.2-0.6,0.3-0.9,0.3c-0.5,0-0.7-0.3-0.7-0.8V51h1.6L131.6,50L131.6,50 z M116.7,54.6v-2.8c0.1-0.9-0.6-1.8-1.6-1.8l0,0h-0.2c-0.6,0-1.2,0.3-1.6,0.8c-0.3-0.5-0.9-0.8-1.5-0.8c-0.5,0-1,0.2-1.3,0.7V50h-1 v4.6h1v-2.5c-0.1-0.6,0.3-1.1,0.9-1.2l0,0h0.2c0.7,0,1,0.4,1,1.2v2.5h1v-2.5c-0.1-0.6,0.3-1.1,0.9-1.2l0,0h0.2c0.7,0,1,0.4,1,1.2 v2.5H116.7z"></path> <path class="st3" d="M142.2,42.2h-15.1V14.9h15.1V42.2z"></path> <path class="st4" d="M128,28.6c0-5.3,2.4-10.3,6.6-13.6c-7.5-5.9-18.4-4.6-24.3,3s-4.6,18.4,3,24.3c6.3,4.9,15.1,4.9,21.4,0 C130.4,38.9,128,33.9,128,28.6"></path> <path class="st5" d="M162.6,28.6c0,9.6-7.8,17.3-17.3,17.3c-3.9,0-7.7-1.3-10.7-3.7c7.5-5.9,8.8-16.8,3-24.3c-0.9-1.1-1.9-2.1-3-3 c7.6-5.9,18.5-4.5,24.4,3.1C161.3,21,162.6,24.7,162.6,28.6"></path> </g> <g> <path class="st6" d="M199.6,19.2h-8.1c-0.5,0-1,0.4-1.1,0.9l-3.3,20.8c-0.1,0.4,0.2,0.7,0.6,0.8h4c0.5,0,1-0.4,1.1-0.9l0.9-5.6 c0.1-0.6,0.6-0.9,1.1-0.9h2.5c5.3,0,8.4-2.5,9.2-7.7c0.4-2.2,0-4-1-5.2C204.4,19.9,202.3,19.2,199.6,19.2z M200.5,26.7 c-0.4,3-2.7,3-4.7,3h-1.2l0.8-5.3c0.1-0.3,0.3-0.6,0.7-0.6h0.6c1.5,0,2.8,0,3.6,0.8C200.7,25.2,200.7,26,200.5,26.7L200.5,26.7z"></path> <path class="st6" d="M223.8,26.7h-3.9c-0.3,0-0.6,0.3-0.7,0.6l-0.2,1.1l-0.3-0.4c-0.8-1.2-2.7-1.6-4.6-1.6 c-4.4,0.1-8.1,3.4-8.6,7.8c-0.4,2.1,0.1,4.3,1.5,6c1.2,1.4,3,2.1,4.9,1.9c2,0,3.9-0.8,5.3-2.2L217,41c-0.1,0.4,0.2,0.7,0.6,0.8h3.5 c0.5,0,1-0.4,1.1-0.9l2.1-13.3C224.3,27.2,224.1,26.9,223.8,26.7C223.8,26.7,223.8,26.7,223.8,26.7z M218.4,34.1 c-0.3,2.1-2.2,3.7-4.4,3.7c-1.6,0.2-3.1-1-3.3-2.6v-0.1c0-0.4,0-0.8,0.1-1.1c0.3-2.2,2.2-3.8,4.4-3.7c0.9-0.1,1.9,0.3,2.5,1 C218.3,32.1,218.6,33.1,218.4,34.1L218.4,34.1z"></path> <path class="st6" d="M244.5,26.7h-3.9c-0.4,0-0.7,0.2-0.9,0.5l-5.3,7.9l-2.2-7.6c-0.1-0.5-0.6-0.9-1.1-0.8h-3.9 c-0.4,0-0.7,0.3-0.7,0.7l0,0v0.2l4.3,12.6l-4,5.6c-0.2,0.3-0.1,0.7,0.2,0.9l0,0c0.1,0.1,0.2,0.1,0.4,0.1h3.9c0.4,0,0.7-0.2,0.9-0.5 l13-18.5c0.2-0.3,0.1-0.7-0.2-0.9l0,0C244.7,26.7,244.6,26.7,244.5,26.7z"></path> <path class="st7" d="M257.4,19.2h-8.1c-0.5,0-1,0.4-1.1,0.9l-3.3,20.7c-0.1,0.4,0.2,0.7,0.6,0.8h4.2c0.4,0,0.7-0.3,0.8-0.7l0.9-5.9 c0.1-0.6,0.6-0.9,1.1-0.9h2.5c5.3,0,8.4-2.5,9.2-7.7c0.4-2.2,0-4-1-5.2C262,19.9,259.9,19.2,257.4,19.2z M258.3,26.7 c-0.4,3-2.7,3-4.7,3h-1.2l0.8-5.3c0.1-0.3,0.3-0.6,0.7-0.6h0.6c1.5,0,2.8,0,3.6,0.8C258.3,25.3,258.4,26,258.3,26.7L258.3,26.7z"></path> <path class="st7" d="M281.5,26.7h-3.9c-0.3,0-0.6,0.3-0.7,0.6l-0.2,1.1l-0.3-0.4c-0.8-1.2-2.7-1.6-4.6-1.6 c-4.4,0.1-8.1,3.4-8.6,7.8c-0.4,2.1,0.1,4.3,1.5,6c1.2,1.4,3,2.1,4.9,1.9c2,0,3.9-0.8,5.3-2.2l-0.2,1.1c-0.1,0.4,0.2,0.7,0.6,0.8 h3.5c0.5,0,1-0.4,1.1-0.9l2.1-13.3c0.1-0.4-0.2-0.7-0.6-0.8C281.5,26.7,281.5,26.7,281.5,26.7z M276.1,34.1 c-0.3,2.1-2.2,3.7-4.4,3.7c-1.6,0.2-3.1-1-3.3-2.6v-0.1c0-0.4,0-0.8,0.1-1.1c0.3-2.2,2.2-3.8,4.4-3.7c0.9-0.1,1.9,0.3,2.5,1 C276,32.1,276.2,33.1,276.1,34.1z"></path> <path class="st7" d="M286.1,19.8l-3.4,21.1c-0.1,0.4,0.2,0.7,0.6,0.8h3.4c0.5,0,1-0.4,1.1-0.9l3.3-20.7c0.1-0.4-0.2-0.7-0.6-0.8 h-3.8C286.4,19.2,286.1,19.4,286.1,19.8C286.1,19.7,286.1,19.8,286.1,19.8z"></path> </g> <g> <g> <defs> <rect id="SVGID_1_" x="535.2" y="19.5" width="140.8" height="27"></rect> </defs> <clipPath id="SVGID_2_"> <use xlink:href="#SVGID_1_" style="overflow:visible;"></use> </clipPath> <path class="st8" d="M590.8,40.6c-5.2,3.8-12.7,5.9-19.2,5.9c-8.7,0-17.1-3.2-23.5-9c-0.5-0.4-0.1-1,0.5-0.7 c7.2,4.1,15.3,6.2,23.5,6.2c6.2,0,12.3-1.3,17.9-3.7C590.9,39,591.6,40,590.8,40.6z"></path> </g> <g> <defs> <rect id="SVGID_3_" x="535.2" y="19.5" width="140.8" height="27"></rect> </defs> <clipPath id="SVGID_4_"> <use xlink:href="#SVGID_3_" style="overflow:visible;"></use> </clipPath> <path class="st9" d="M593,38.1c-0.7-0.9-4.4-0.4-6.1-0.2c-0.5,0.1-0.6-0.4-0.1-0.7c3-2.1,7.9-1.5,8.4-0.8c0.6,0.7-0.2,5.6-2.9,7.9 c-0.4,0.4-0.8,0.2-0.6-0.3C592.2,42.5,593.6,39,593,38.1z"></path> </g> <g> <defs> <rect id="SVGID_5_" x="535.2" y="19.5" width="140.8" height="27"></rect> </defs> <clipPath id="SVGID_6_"> <use xlink:href="#SVGID_5_" style="overflow:visible;"></use> </clipPath> <path class="st10" d="M587,22.5v-2c0-0.3,0.2-0.5,0.5-0.5l0,0h9.1c0.3,0,0.5,0.2,0.5,0.5l0,0v1.7c-0.1,0.5-0.4,0.9-0.7,1.3 l-4.7,6.7c1.8-0.1,3.6,0.3,5.2,1.1c0.3,0.2,0.5,0.5,0.5,0.8v2.2c0,0.3-0.3,0.6-0.7,0.5c-3-1.6-6.6-1.5-9.6,0 c-0.3,0.2-0.6-0.2-0.6-0.5v-2.1c0-0.5,0.1-1,0.3-1.4l5.5-7.8h-4.8C587.2,23,587,22.8,587,22.5L587,22.5z"></path> </g> <g> <defs> <rect id="SVGID_7_" x="535.2" y="19.5" width="140.8" height="27"></rect> </defs> <clipPath id="SVGID_8_"> <use xlink:href="#SVGID_7_" style="overflow:visible;"></use> </clipPath> <path class="st11" d="M553.8,35.2H551c-0.3,0-0.5-0.2-0.5-0.5V20.5c0-0.3,0.2-0.5,0.5-0.5l0,0h2.6c0.3,0,0.5,0.2,0.5,0.5v1.9h0.1 c0.5-1.6,2-2.7,3.6-2.6c1.7,0,2.8,0.8,3.6,2.6c0.8-2.1,3.2-3.2,5.3-2.4c0.7,0.3,1.3,0.7,1.8,1.3c0.9,1.2,0.7,2.9,0.7,4.5v9 c0,0.3-0.2,0.5-0.5,0.5l0,0h-2.8c-0.3,0-0.5-0.2-0.5-0.5v-7.5c0-0.9,0-1.8-0.1-2.7c-0.1-0.8-0.8-1.3-1.6-1.2 c-0.7,0-1.4,0.5-1.7,1.2c-0.2,0.9-0.3,1.8-0.3,2.7v7.5c0,0.3-0.2,0.5-0.5,0.5l0,0h-2.8c-0.3,0-0.5-0.2-0.5-0.5v-7.5 c0-1.6,0.3-3.9-1.7-3.9s-1.9,2.3-1.9,3.9v7.5C554.3,34.9,554.1,35.2,553.8,35.2L553.8,35.2z"></path> </g> <g> <defs> <rect id="SVGID_9_" x="535.2" y="19.5" width="140.8" height="27"></rect> </defs> <clipPath id="SVGID_10_"> <use xlink:href="#SVGID_9_" style="overflow:visible;"></use> </clipPath> <path class="st12" d="M605,22.6c-2,0-2.2,2.8-2.2,4.5c0,1.7,0,5.4,2.1,5.4s2.3-3,2.3-4.8c0-1.3-0.1-2.5-0.4-3.8 C606.6,23.1,605.9,22.5,605,22.6z M605,19.7c4.1,0,6.3,3.5,6.3,8c0,4.3-2.5,7.8-6.3,7.8c-4,0-6.2-3.5-6.2-7.9 C598.8,23.1,601,19.7,605,19.7z"></path> </g> <g> <defs> <rect id="SVGID_11_" x="535.2" y="19.5" width="140.8" height="27"></rect> </defs> <clipPath id="SVGID_12_"> <use xlink:href="#SVGID_11_" style="overflow:visible;"></use> </clipPath> <path class="st13" d="M616.7,35.2h-2.8c-0.3,0-0.5-0.2-0.5-0.5V20.5c0-0.3,0.3-0.5,0.5-0.5h2.6c0.2,0,0.4,0.2,0.5,0.4v2.2h0.1 c0.8-1.9,1.9-2.9,3.8-2.9c1.3-0.1,2.5,0.6,3.2,1.7s0.7,3.1,0.7,4.4v8.9c0,0.3-0.3,0.5-0.5,0.4h-2.8c-0.3,0-0.5-0.2-0.5-0.4V27 c0-1.6,0.2-3.8-1.7-3.8c-0.7,0-1.3,0.5-1.6,1.1c-0.3,0.9-0.5,1.8-0.4,2.7v7.7C617.2,34.9,616.9,35.2,616.7,35.2z"></path> </g> <g> <defs> <rect id="SVGID_13_" x="535.2" y="19.5" width="140.8" height="27"></rect> </defs> <clipPath id="SVGID_14_"> <use xlink:href="#SVGID_13_" style="overflow:visible;"></use> </clipPath> <path class="st14" d="M584.7,32.6c-0.7-0.7-1-1.6-1-2.6v-4.3c0-1.8,0.1-3.5-1.2-4.8c-1.2-0.9-2.6-1.4-4.1-1.4h-0.2 c-2.6,0-5.5,1-6.1,4.2c0,0.3,0.1,0.5,0.4,0.6l0,0l2.7,0.3c0.3,0,0.4-0.3,0.5-0.5c0.2-1,1.2-1.7,2.2-1.7c0.6,0,1.2,0.2,1.6,0.7 c0.3,0.6,0.4,1.3,0.3,2v0.4c-1.8,0.1-3.5,0.4-5.2,1c-1.8,0.7-3,2.5-3,4.5c0,2.9,1.8,4.3,4.1,4.3c1.8,0.1,3.5-0.6,4.6-2 c0.4,0.7,0.9,1.3,1.6,1.9c0.2,0.1,0.5,0.1,0.7-0.1l0,0c0.6-0.5,1.6-1.4,2.1-1.8C584.9,33.1,584.9,32.8,584.7,32.6z M579.7,28.4 c0.1,1-0.1,2-0.5,2.9c-0.4,0.7-1.1,1.2-1.9,1.3c-1.1,0-1.7-0.8-1.7-2c0-2.4,2.1-2.8,4.1-2.8L579.7,28.4z"></path> </g> <g> <defs> <rect id="SVGID_15_" x="535.2" y="19.5" width="140.8" height="27"></rect> </defs> <clipPath id="SVGID_16_"> <use xlink:href="#SVGID_15_" style="overflow:visible;"></use> </clipPath> <path class="st15" d="M548.3,32.6c-0.7-0.7-1-1.6-1.1-2.6v-4.3c0-1.8,0.1-3.5-1.2-4.8c-1.2-0.9-2.6-1.4-4.1-1.4h-0.2 c-2.6,0-5.5,1-6.1,4.2c0,0.3,0.1,0.5,0.4,0.6l0,0l2.7,0.3c0.2,0,0.4-0.3,0.5-0.5c0.2-1,1.2-1.7,2.2-1.7c0.6,0,1.2,0.2,1.6,0.7 c0.3,0.6,0.4,1.3,0.3,2v0.4c-1.8,0.1-3.5,0.4-5.2,1c-1.8,0.7-3,2.5-3,4.5c0,2.9,1.8,4.3,4.1,4.3c1.8,0.1,3.5-0.7,4.6-2 c0.4,0.7,0.9,1.3,1.6,1.9c0.2,0.1,0.5,0.1,0.7-0.1l0,0c0.6-0.5,1.6-1.4,2.1-1.8C548.5,33.1,548.5,32.8,548.3,32.6z M543.4,28.4 c0.1,1-0.1,2-0.5,2.9c-0.4,0.7-1.1,1.2-1.9,1.3c-1.1,0-1.7-0.8-1.7-2c0-2.4,2.1-2.8,4.1-2.8L543.4,28.4z"></path> </g> <g> <defs> <rect id="SVGID_17_" x="535.2" y="19.5" width="140.8" height="27"></rect> </defs> <clipPath id="SVGID_18_"> <use xlink:href="#SVGID_17_" style="overflow:visible;"></use> </clipPath> <path class="st16" d="M662.6,40.3v-1c0-0.3,0.1-0.5,0.5-0.5c0.7,0.1,1.3,0.1,2,0c0.7-0.2,1.4-0.7,1.6-1.4c0.5-1,0.8-1.9,0.9-2.4 l-5.8-14.3c-0.1-0.2-0.1-0.7,0.4-0.7h2c0.3,0,0.6,0.2,0.6,0.5l4.2,11.6l4-11.6c0.1-0.3,0.3-0.5,0.6-0.5h1.9c0.5,0,0.5,0.4,0.4,0.7 l-5.7,14.7c-0.7,2-1.7,5.1-3.9,5.6c-1.1,0.3-2.3,0.2-3.3-0.2C662.7,40.7,662.6,40.5,662.6,40.3z"></path> </g> <g> <defs> <rect id="SVGID_19_" x="535.2" y="19.5" width="140.8" height="27"></rect> </defs> <clipPath id="SVGID_20_"> <use xlink:href="#SVGID_19_" style="overflow:visible;"></use> </clipPath> <path class="st17" d="M660,34.3c0,0.3-0.2,0.5-0.5,0.5h-1.4c-0.3,0-0.5-0.2-0.6-0.5l-0.1-1c-0.7,0.6-1.5,1-2.3,1.4 c-1.7,0.7-3.6,0.7-5.2-0.2c-1.2-0.8-1.9-2.2-1.8-3.6c0-1.1,0.4-2.2,1.1-3.1c1.1-1.1,2.7-1.7,4.3-1.7c1.3,0,2.6,0.2,3.8,0.5v-1.9 c0-2-0.8-2.8-3-2.8c-1.6,0-3.2,0.3-4.8,0.8c-0.2,0-0.4-0.2-0.5-0.4c0,0,0,0,0-0.1v-1.1c0-0.3,0.2-0.5,0.5-0.6c1.6-0.6,3.3-0.9,5-1 c2.5,0,5.5,0.6,5.5,4.4V34.3z M657.2,31.4v-2.9c-1-0.2-2.1-0.4-3.1-0.4c-0.9-0.1-1.9,0.2-2.6,0.8c-0.4,0.5-0.6,1.1-0.6,1.7 c-0.1,0.8,0.3,1.5,0.9,2c0.9,0.5,2,0.5,2.9,0.1C655.7,32.5,656.5,32,657.2,31.4L657.2,31.4z"></path> </g> <g> <defs> <rect id="SVGID_21_" x="535.2" y="19.5" width="140.8" height="27"></rect> </defs> <clipPath id="SVGID_22_"> <use xlink:href="#SVGID_21_" style="overflow:visible;"></use> </clipPath> <path class="st18" d="M639.8,19.5c-1.8,0.1-3.5,0.8-4.8,2l-0.2-1c0-0.3-0.3-0.5-0.6-0.5h-1.5c-0.3,0-0.5,0.2-0.5,0.5l0,0v19.8 c0,0.3,0.2,0.5,0.5,0.5l0,0h1.9c0.3,0,0.5-0.2,0.5-0.5l0,0v-6.8c1.2,1.1,2.8,1.7,4.5,1.7c4,0,6.3-3.5,6.3-7.8 C646,23.4,644.5,19.5,639.8,19.5z M641.7,31.8c-0.8,0.7-1.8,1-2.8,0.9c-1.3-0.1-2.6-0.6-3.7-1.4v-8.1c1.1-0.8,2.4-1.3,3.8-1.3 c3.1,0,4,2.5,4,5.3C643,29.1,642.7,30.8,641.7,31.8L641.7,31.8z"></path> </g> </g> <g> <g transform="translate(-310 -37)"> <g transform="translate(310 37)"> <path class="st19" d="M318.2,13h58.2c3.8,0,6.9,3.1,6.9,6.9v26.2c0,3.8-3.1,6.9-6.9,6.9h-58.2c-3.8,0-6.9-3.1-6.9-6.9V19.9 C311.3,16.1,314.4,13,318.2,13z"></path> <g transform="translate(4.4136 8.4)"> <path class="st20" d="M372.1,28c-0.9,0-1.7,0.8-1.7,1.7c0,1,0.8,1.7,1.7,1.7c0.9,0,1.7-0.8,1.7-1.7 C373.8,28.8,373.1,28,372.1,28z M366.5,26.7c0-1.3-1.1-2.4-2.5-2.4s-2.5,1.1-2.5,2.4s1.1,2.4,2.5,2.4S366.5,28,366.5,26.7z M366.5,22.1h2.7v9.2h-2.7v-0.6c-0.8,0.5-1.7,0.8-2.7,0.8c-2.6,0-4.8-2.2-4.8-4.8s2.1-4.8,4.8-4.8c1,0,1.9,0.3,2.7,0.8V22.1 L366.5,22.1z M344.8,23.3v-1.2H342v9.2h2.8V27c0-1.4,1.5-2.2,2.6-2.2l0,0v-2.7C346.3,22.1,345.3,22.6,344.8,23.3L344.8,23.3z M337.8,26.7c0-1.3-1.1-2.4-2.5-2.4s-2.5,1.1-2.5,2.4s1.1,2.4,2.5,2.4C336.7,29.1,337.8,28,337.8,26.7z M337.8,22.1h2.7v9.2 h-2.7v-0.6c-0.8,0.5-1.7,0.8-2.7,0.8c-2.6,0-4.8-2.2-4.8-4.8s2.1-4.8,4.8-4.8c1,0,1.9,0.3,2.7,0.8V22.1L337.8,22.1z M354.2,21.9 c-1.1,0-2.1,0.3-2.8,1.3v-1h-2.7v9.2h2.7v-4.8c0-1.4,0.9-2.1,2-2.1c1.2,0,1.9,0.7,1.9,2.1v4.8h2.7v-5.8 C358.1,23.3,356.4,21.9,354.2,21.9L354.2,21.9z M326.4,31.3h2.8V18h-2.8V31.3z M313.9,31.3h3V18h-3V31.3z M324.4,18 c0,2.9-1.1,5.5-3.1,7.5l4.2,5.7h-3.7l-4.5-6.2l1.2-0.9c1.9-1.5,3-3.7,3-6.1H324.4L324.4,18z"></path> </g> </g> </g> </g> <g> <g id="Afterpay_Badge_Bg"> <g> <path class="st21" d="M499.7,54.4h-80.2c-11.8,0-21.4-9.6-21.4-21.4l0,0c0-11.8,9.6-21.4,21.4-21.4h80.2 c11.8,0,21.4,9.6,21.4,21.4l0,0C521.1,44.8,511.5,54.4,499.7,54.4z"></path> </g> </g> <g id="Afterpay_Logo_Black"> <g> <path d="M503,27.9l-2.7-1.5l-2.7-1.6c-1.8-1-4.1,0.3-4.1,2.3v0.3c0,0.2,0.1,0.4,0.3,0.5l1.3,0.7c0.4,0.2,0.8-0.1,0.8-0.5v-0.8 c0-0.4,0.4-0.7,0.8-0.5l2.5,1.4l2.5,1.4c0.4,0.2,0.4,0.7,0,0.9l-2.5,1.4l-2.5,1.4c-0.4,0.2-0.8-0.1-0.8-0.5v-0.4 c0-2.1-2.3-3.4-4.1-2.3l-2.7,1.6l-2.7,1.5c-1.8,1-1.8,3.7,0,4.7l2.7,1.5l2.7,1.6c1.8,1,4.1-0.3,4.1-2.3v-0.3 c0-0.2-0.1-0.4-0.3-0.5l-1.3-0.7c-0.4-0.2-0.8,0.1-0.8,0.5v0.8c0,0.4-0.4,0.7-0.8,0.5l-2.5-1.4l-2.5-1.4c-0.4-0.2-0.4-0.7,0-0.9 l2.5-1.4l2.5-1.4c0.4-0.2,0.8,0.1,0.8,0.5v0.4c0,2.1,2.3,3.4,4.1,2.3l2.7-1.6l2.7-1.5C504.8,31.5,504.8,28.9,503,27.9z"></path> <g> <path d="M485.3,28.4l-6.3,13h-2.6l2.4-4.9l-3.7-8.2h2.7l2.4,5.5l2.6-5.5L485.3,28.4L485.3,28.4z"></path> </g> <g> <g> <path d="M422.3,33c0-1.6-1.1-2.6-2.5-2.6c-1.4,0-2.5,1.1-2.5,2.6c0,1.5,1.1,2.6,2.5,2.6C421.2,35.7,422.3,34.6,422.3,33 M422.3,37.6v-1.2c-0.7,0.8-1.7,1.3-2.9,1.3c-2.5,0-4.5-2-4.5-4.8c0-2.7,2-4.8,4.5-4.8c1.2,0,2.2,0.5,2.9,1.3v-1.2h2.3v9.2 L422.3,37.6L422.3,37.6z"></path> <path d="M435.7,35.6c-0.8,0-1-0.3-1-1.1v-4.1h1.5v-2h-1.5v-2.3h-2.3v2.3h-3v-0.9c0-0.8,0.3-1.1,1.1-1.1h0.5v-1.8h-1.1 c-1.9,0-2.8,0.6-2.8,2.6v1.2h-1.3v2h1.3v7.2h2.3v-7.2h3v4.5c0,1.9,0.7,2.7,2.6,2.7h1.2v-2.1L435.7,35.6L435.7,35.6z"></path> <path d="M444,32.2c-0.2-1.2-1.1-1.9-2.3-1.9c-1.1,0-2.1,0.7-2.3,1.9H444z M439.4,33.6c0.2,1.4,1.1,2.1,2.4,2.1 c1,0,1.7-0.5,2.2-1.2h2.4c-0.6,2-2.3,3.2-4.6,3.2c-2.8,0-4.8-2-4.8-4.8s2.1-4.8,4.8-4.8c2.8,0,4.8,2,4.8,4.8 c0,0.2,0,0.4-0.1,0.6H439.4z"></path> <path d="M461.3,33c0-1.5-1.1-2.6-2.5-2.6c-1.4,0-2.5,1.1-2.5,2.6c0,1.5,1.1,2.6,2.5,2.6C460.2,35.7,461.3,34.5,461.3,33 M454,41.4v-13h2.3v1.2c0.7-0.8,1.7-1.4,2.9-1.4c2.5,0,4.5,2.1,4.5,4.8s-2,4.8-4.5,4.8c-1.2,0-2.1-0.5-2.8-1.2v4.9L454,41.4 L454,41.4z"></path> <path d="M471.8,33c0-1.6-1.1-2.6-2.5-2.6c-1.4,0-2.5,1.1-2.5,2.6c0,1.5,1.1,2.6,2.5,2.6C470.7,35.7,471.8,34.6,471.8,33 M471.9,37.6v-1.2c-0.7,0.8-1.7,1.3-2.9,1.3c-2.5,0-4.5-2-4.5-4.8c0-2.7,2-4.8,4.5-4.8c1.2,0,2.2,0.5,2.9,1.3v-1.2h2.3v9.2 L471.9,37.6L471.9,37.6z"></path> <path d="M449.9,29.3c0,0,0.6-1.1,2-1.1c0.6,0,1,0.2,1,0.2v2.4c0,0-0.9-0.5-1.6-0.4s-1.3,0.8-1.3,1.8v5.5h-2.3v-9.2h2.3 L449.9,29.3L449.9,29.3z"></path> </g> </g> </g> </g> </g> </svg> 